HIERARCHY
ROOT Hips
{
  OFFSET 0 0 0
  CHANNELS 6 Xposition Yposition Zposition Zrotation Yrotation Xrotation
  JOINT LeftThigh
  {
    OFFSET 8.409438 0 -5.917753
    CHANNELS 3 Zrotation Yrotation Xrotation
    JOINT LeftLeg
    {
      OFFSET 0 0 -42.358652
      CHANNELS 3 Zrotation Yrotation Xrotation
      JOINT LeftFoot
      {
        OFFSET 0 0 -39.357303
        CHANNELS 3 Zrotation Yrotation Xrotation
      }
    }
  }
  JOINT RightThigh
  {
    OFFSET -8.409438 0 -5.917753
    CHANNELS 3 Zrotation Yrotation Xrotation
    JOINT RightLeg
    {
      OFFSET 0 0 -42.358652
      CHANNELS 3 Zrotation Yrotation Xrotation
      JOINT RightFoot
      {
        OFFSET 0 0 -39.357303
        CHANNELS 3 Zrotation Yrotation Xrotation
      }
    }
  }
  JOINT SpineLow
  {
    OFFSET 0 0 4.719101
    CHANNELS 3 Zrotation Yrotation Xrotation
    JOINT SpineMid
    {
      OFFSET 0 0 12.899191
      CHANNELS 3 Zrotation Yrotation Xrotation
      JOINT Chest
      {
        OFFSET 0 0 12.899191
        CHANNELS 3 Zrotation Yrotation Xrotation
        JOINT LeftShoulder
        {
          OFFSET 7.550562 1.41573 9.438202
          CHANNELS 3 Zrotation Yrotation Xrotation
          JOINT LeftArm
          {
            OFFSET 9.155056 0 4.247191
            CHANNELS 3 Zrotation Yrotation Xrotation
            JOINT LeftForearm
            {
              OFFSET 0 0 25.771955
              CHANNELS 3 Zrotation Yrotation Xrotation
              JOINT LeftHand
              {
                OFFSET 0 0 25.197169
                CHANNELS 3 Zrotation Yrotation Xrotation
              }
            }
          }
        }
        JOINT RightShoulder
        {
          OFFSET -7.550562 1.41573 9.438202
          CHANNELS 3 Zrotation Yrotation Xrotation
          JOINT RightArm
          {
            OFFSET -9.155056 0 4.247191
            CHANNELS 3 Zrotation Yrotation Xrotation
            JOINT RightForearm
            {
              OFFSET 0 0 -25.771955
              CHANNELS 3 Zrotation Yrotation Xrotation
              JOINT RightHand
              {
                OFFSET 0 0 -25.197169
                CHANNELS 3 Zrotation Yrotation Xrotation
              }
            }
          }
        }
        JOINT Neck
        {
          OFFSET 0 0 15.101124
          CHANNELS 3 Zrotation Yrotation Xrotation
          JOINT Head
          {
            OFFSET 0 0 11.325843
            CHANNELS 3 Zrotation Yrotation Xrotation
            End Site
            {
              OFFSET 0 0 14.157303
            }
          }
        }
      }
    }
  }
}
MOTION
Frames: 6
Frame Time: 0.0
0.0  89.887642  0.0  3.879872  -25.474212  -99.934071  9.419051  -12.851332  2.534439  2.988666  5.303327  26.636445  -0.700827  0.216301  -0.958171  -11.675099  10.629801  -2.917581  -14.278112  5.916077  7.032078  12.032226  1.491617  -0.606162  0.868146  -0.346019  0.927277  2.359481  -0.978791  2.521993  2.359481  -0.978791  2.521993  -5.428092  16.197976  1.984227  151.851906  45.564858  -154.456053  -8.326454  -1.265008  17.382376  88.781497  -11.150649  8.28357  -6.832676  -1.605154  16.335146  92.359191  31.468179  37.224917  -4.532435  6.481136  -33.526959  94.557679  4.932809  -14.447263  -2.04553  3.569477  3.183887  -1.552318  2.666577  2.399134  
0.0  89.887642  0.0  3.941969  -25.239696  -99.800627  9.303905  -12.86109  2.257191  3.177144  5.485668  26.970683  -0.896722  0.076524  -0.983694  -12.287316  10.742498  -3.386191  -14.392907  6.072299  7.484588  12.293743  1.488326  -0.716734  0.862497  -0.316108  0.903891  2.34549  -0.896016  2.4592  2.34549  -0.896016  2.4592  -5.568095  16.153453  2.121173  151.473841  45.720107  -154.451852  -8.080237  -1.19253  17.042595  89.349215  -11.083179  8.078941  -6.799979  -1.65542  16.234043  92.358039  31.303934  36.63577  -4.981563  5.495834  -34.695057  93.081587  4.337506  -14.039852  -2.268192  3.513691  3.1136  -1.718584  2.623841  2.34756  
0.0  89.887642  0.0  4.081765  -25.151479  -99.775246  9.367762  -12.767171  2.037338  3.293162  5.568862  27.231511  -0.992391  0.004024  -0.9287  -12.61701  10.88195  -3.820341  -14.184031  6.242935  8.029601  12.443508  1.530936  -0.799953  0.892396  -0.266118  0.900163  2.429081  -0.760388  2.4504  2.429081  -0.760388  2.4504  -5.806668  16.00948  2.20781  151.183702  45.962078  -154.360217  -7.708809  -0.991184  16.634128  90.029144  -11.08307  7.81326  -6.67372  -1.854519  16.023578  92.371212  31.013658  35.989508  -5.451952  4.223638  -36.023716  91.553286  3.732265  -13.621693  -2.469909  3.42913  3.045618  -1.86904  2.559669  2.297449  
0.0  89.887642  0.0  4.109741  -24.70038  -99.649305  9.712159  -12.744843  2.092183  3.033064  5.605209  27.171687  -1.226907  -0.105105  -0.951571  -13.417502  10.900136  -4.315901  -13.741403  6.410392  8.632433  12.604138  1.63175  -0.838152  0.902294  -0.230671  0.892396  2.457509  -0.663603  2.430354  2.457509  -0.663603  2.430354  -6.102058  15.934805  2.295848  150.731872  46.369599  -154.215095  -7.183312  -0.6359  16.161107  90.822482  -11.129395  7.545899  -6.611677  -2.073604  15.709586  92.561976  30.588538  35.372915  -5.912282  2.912928  -37.516457  89.764866  3.152369  -13.151641  -2.829186  3.333019  2.976293  -2.137599  2.486124  2.247091  
0.0  89.887642  0.0  4.269627  -24.27043  -99.700324  9.427777  -12.501482  1.852628  3.286711  5.501758  27.493928  -1.319522  -0.108739  -0.873595  -13.976263  11.085926  -4.645351  -13.464712  6.636658  9.132462  12.605759  1.679378  -0.878649  0.96526  -0.170138  0.901892  2.631721  -0.500885  2.458033  2.631721  -0.500885  2.458033  -6.742681  15.777636  2.278892  150.316754  46.84762  -154.065632  -6.420511  -0.103503  15.616902  91.786421  -11.238648  7.433514  -6.557793  -2.363881  15.422783  92.927169  30.078538  34.716684  -6.422321  1.533633  -39.19253  87.733525  2.533097  -12.566157  -3.3341  3.202432  2.934687  -2.515384  2.385969  2.218006  
0.0  89.887642  0.0  4.363037  -23.689525  -99.776234  9.021541  -12.335961  1.647182  3.827462  5.357497  28.043755  -1.491513  -0.139323  -0.87689  -15.090172  10.98169  -4.864057  -12.716899  7.041148  9.500956  12.577296  1.710988  -0.943334  1.049745  -0.119415  0.913388  2.864419  -0.365921  2.490954  2.864419  -0.365921  2.490953  -7.440366  15.59506  2.317879  149.698474  47.418882  -153.781602  -5.334059  0.550628  14.962904  92.915038  -11.408369  7.6204  -6.489136  -2.625805  15.217919  93.661862  29.507699  34.040126  -7.117202  -0.105651  -40.865393  85.301897  2.006973  -11.778226  -3.986484  3.040839  2.940983  -3.003887  2.261627  2.225183  
